HIERARCHY
ROOT hip
{
  OFFSET 0 0 0
  CHANNELS 6 Xposition Yposition Zposition Zrotation Yrotation Xrotation
  JOINT abdomen
  {
    OFFSET 0 20.6881 -0.73152
    CHANNELS 3 Zrotation Xrotation Yrotation
    JOINT chest
    {
      OFFSET 0 11.7043 -0.48768
      CHANNELS 3 Zrotation Xrotation Yrotation
      JOINT neck
      {
        OFFSET 0 22.1894 -2.19456
        CHANNELS 3 Zrotation Xrotation Yrotation
        JOINT head
        {
          OFFSET -0.24384 7.07133 1.2192
          CHANNELS 3 Zrotation Xrotation Yrotation
          JOINT leftEye
          {
            OFFSET 4.14528 8.04674 8.04672
            CHANNELS 3 Zrotation Xrotation Yrotation
            End Site
            {
              OFFSET 1 0 0
            }
          }
          JOINT rightEye
          {
            OFFSET -3.6576 8.04674 8.04672
            CHANNELS 3 Zrotation Xrotation Yrotation
            End Site
            {
              OFFSET 1 0 0
            }
          }
        }
      }
      JOINT rCollar
      {
        OFFSET -2.68224 19.2634 -4.8768
        CHANNELS 3 Zrotation Xrotation Yrotation
        JOINT rShldr
        {
          OFFSET -8.77824 -1.95073 1.46304
          CHANNELS 3 Zrotation Xrotation Yrotation
          JOINT rForeArm
          {
            OFFSET -28.1742 -1.7115 0.48768
            CHANNELS 3 Zrotation Xrotation Yrotation
            JOINT rHand
            {
              OFFSET -22.5879 0.773209 7.07136
              CHANNELS 3 Zrotation Xrotation Yrotation
              JOINT rThumb1
              {
                OFFSET -1.2192 -0.487915 3.41376
                CHANNELS 3 Zrotation Xrotation Yrotation
                JOINT rThumb2
                {
                  OFFSET -3.37035 -0.52449 3.41376
                  CHANNELS 3 Zrotation Xrotation Yrotation
                  End Site
                  {
                    OFFSET -1.78271 -1.18214 1.43049
                  }
                }
              }
              JOINT rIndex1
              {
                OFFSET -7.75947 0.938293 5.60832
                CHANNELS 3 Zrotation Xrotation Yrotation
                JOINT rIndex2
                {
                  OFFSET -2.54057 -0.884171 1.56538
                  CHANNELS 3 Zrotation Xrotation Yrotation
                  End Site
                  {
                    OFFSET -1.62519 -0.234802 1.16502
                  }
                }
              }
              JOINT rMid1
              {
                OFFSET -8.24714 1.18213 3.41376
                CHANNELS 3 Zrotation Xrotation Yrotation
                JOINT rMid2
                {
                  OFFSET -3.10165 -0.590103 1.0647
                  CHANNELS 3 Zrotation Xrotation Yrotation
                  End Site
                  {
                    OFFSET -2.48547 -0.328903 0.83742
                  }
                }
              }
              JOINT rRing1
              {
                OFFSET -8.82822 0.546677 1.51678
                CHANNELS 3 Zrotation Xrotation Yrotation
                JOINT rRing2
                {
                  OFFSET -2.60934 -0.819778 -0.0198488
                  CHANNELS 3 Zrotation Xrotation Yrotation
                  End Site
                  {
                    OFFSET -2.33842 -0.294052 0.168128
                  }
                }
              }
              JOINT rPinky1
              {
                OFFSET -8.27202 -0.0477905 -0.4584
                CHANNELS 3 Zrotation Xrotation Yrotation
                JOINT rPinky2
                {
                  OFFSET -1.82734 -0.647385 -0.700984
                  CHANNELS 3 Zrotation Xrotation Yrotation
                  End Site
                  {
                    OFFSET -1.69225 -0.51767 -0.607171
                  }
                }
              }
            }
          }
        }
      }
      JOINT lCollar
      {
        OFFSET 2.68224 19.2634 -4.8768
        CHANNELS 3 Zrotation Xrotation Yrotation
        JOINT lShldr
        {
          OFFSET 8.77824 -1.95073 1.46304
          CHANNELS 3 Zrotation Xrotation Yrotation
          JOINT lForeArm
          {
            OFFSET 28.1742 -1.7115 0.48768
            CHANNELS 3 Zrotation Xrotation Yrotation
            JOINT lHand
            {
              OFFSET 22.5879 0.773209 7.07136
              CHANNELS 3 Zrotation Xrotation Yrotation
              JOINT lThumb1
              {
                OFFSET 1.2192 -0.487915 3.41376
                CHANNELS 3 Zrotation Xrotation Yrotation
                JOINT lThumb2
                {
                  OFFSET 3.37035 -0.52449 3.41376
                  CHANNELS 3 Zrotation Xrotation Yrotation
                  End Site
                  {
                    OFFSET 1.78271 -1.18214 1.43049
                  }
                }
              }
              JOINT lIndex1
              {
                OFFSET 7.75947 0.938293 5.60832
                CHANNELS 3 Zrotation Xrotation Yrotation
                JOINT lIndex2
                {
                  OFFSET 2.54057 -0.884171 1.56538
                  CHANNELS 3 Zrotation Xrotation Yrotation
                  End Site
                  {
                    OFFSET 1.62519 -0.234802 1.16502
                  }
                }
              }
              JOINT lMid1
              {
                OFFSET 8.24714 1.18213 3.41376
                CHANNELS 3 Zrotation Xrotation Yrotation
                JOINT lMid2
                {
                  OFFSET 3.10165 -0.590103 1.0647
                  CHANNELS 3 Zrotation Xrotation Yrotation
                  End Site
                  {
                    OFFSET 2.48547 -0.328903 0.83742
                  }
                }
              }
              JOINT lRing1
              {
                OFFSET 8.82822 0.546677 1.51678
                CHANNELS 3 Zrotation Xrotation Yrotation
                JOINT lRing2
                {
                  OFFSET 2.60934 -0.819778 -0.0198488
                  CHANNELS 3 Zrotation Xrotation Yrotation
                  End Site
                  {
                    OFFSET 2.33842 -0.294052 0.168128
                  }
                }
              }
              JOINT lPinky1
              {
                OFFSET 8.27202 -0.0477905 -0.4584
                CHANNELS 3 Zrotation Xrotation Yrotation
                JOINT lPinky2
                {
                  OFFSET 1.82734 -0.647385 -0.700984
                  CHANNELS 3 Zrotation Xrotation Yrotation
                  End Site
                  {
                    OFFSET 1.69225 -0.51767 -0.607171
                  }
                }
              }
            }
          }
        }
      }
    }
  }
  JOINT rButtock
  {
    OFFSET -8.77824 4.35084 1.2192
    CHANNELS 3 Zrotation Xrotation Yrotation
    JOINT rThigh
    {
      OFFSET 0 -1.70687 -2.19456
      CHANNELS 3 Zrotation Xrotation Yrotation
      JOINT rShin
      {
        OFFSET 0 -36.8199 0.73152
        CHANNELS 3 Zrotation Xrotation Yrotation
        JOINT rFoot
        {
          OFFSET 0.73152 -45.1104 -5.12064
          CHANNELS 3 Zrotation Xrotation Yrotation
          End Site
          {
            OFFSET -1.1221 -3.69964 12.103
          }
        }
      }
    }
  }
  JOINT lButtock
  {
    OFFSET 8.77824 4.35084 1.2192
    CHANNELS 3 Zrotation Xrotation Yrotation
    JOINT lThigh
    {
      OFFSET 0 -1.70687 -2.19456
      CHANNELS 3 Zrotation Xrotation Yrotation
      JOINT lShin
      {
        OFFSET 0 -36.8199 0.73152
        CHANNELS 3 Zrotation Xrotation Yrotation
        JOINT lFoot
        {
          OFFSET -0.73152 -45.1104 -5.12064
          CHANNELS 3 Zrotation Xrotation Yrotation
          End Site
          {
            OFFSET 1.1221 -3.69964 12.103
          }
        }
      }
    }
  }
}
MOTION
Frames:	4
Frame Time:	0.00833333
-24.9542 84.7178 -94.2727 0.0 0.0 0.0 -0.462529 -0.00207378 -0.0132009 -0.127532 -0.00315854 -0.0220953 5.1859e-15 -7.95139e-16 -6.21202e-17 1.55207e-14 3.18055e-15 -1.81702e-16 -0.0 0.0 0.0 -0.0 0.0 0.0 2.63269e-15 6.40615e-18 1.49089e-16 5.644e-14 1.61513e-16 3.97569e-16 9.3235e-13 -2.72335e-13 -2.8625e-14 1.06469e-11 3.06899e-13 -8.5875e-14 2.51163e-11 7.27004e-14 -2.3218e-13 4.33637e-11 1.27222e-13 -4.13472e-13 2.51212e-11 7.4743e-14 -2.38542e-13 7.73091 5.47488 0.417314 2.51148e-11 7.23576e-14 -2.3218e-13 2.90554 0.965183 0.102902 2.51228e-11 7.27552e-14 -2.32976e-13 10.2786 0.731801 0.0259123 2.51141e-11 7.39479e-14 -2.25819e-13 2.22167 -0.733487 -0.20892 2.53588e-15 6.21202e-18 -2.48481e-16 5.29287e-14 4.34841e-16 -1.19271e-15 9.28126e-13 2.83666e-13 -1.27222e-14 1.06396e-11 -2.51612e-13 -7.63333e-14 2.50982e-11 6.38964e-14 -2.25819e-13 4.33526e-11 1.04958e-13 -3.92003e-13 2.5093e-11 6.79844e-14 -2.22639e-13 -7.73091 5.47488 -0.417314 2.50981e-11 6.38099e-14 -2.3218e-13 -2.90554 0.965183 -0.102902 2.50919e-11 6.42074e-14 -2.29795e-13 -10.2786 0.731801 -0.0259123 2.51049e-11 6.55989e-14 -2.44903e-13 -2.22167 -0.733487 0.20892 -2.03217e-16 0.0 -3.88251e-19 0.172364 -2.4816 -0.0258954 -0.00786741 -1.0571 -0.0680517 -0.522451 3.53839 0.132386 2.03217e-16 0.0 3.88251e-19 -0.875849 -4.26242 0.0710581 0.00283237 2.1685 0.0189689 0.527723 2.09369 -0.103296
-24.6418 83.3859 -95.8376 1.7044 1.1102 4.8952 -1.82263 5.90832 -0.623059 1.27044 -1.64319 -0.196698 -2.36114 4.01952 -2.78048 4.3226 -10.0769 -4.21555 -0.0 0.0 0.0 -0.0 0.0 0.0 -6.08299e-15 2.15461e-14 -8.58424e-15 21.6858 4.53245 3.51121 -4.91671 -2.39268 7.49967 0.000396453 -0.441666 -0.0620655 -3.47695e-11 3.65868e-10 -3.07729e-10 -6.06758e-11 6.32999e-10 -5.32418e-10 -3.47652e-11 3.65871e-10 -3.07737e-10 7.73091 5.47488 0.417314 -3.47715e-11 3.65868e-10 -3.07731e-10 2.90554 0.965183 0.102902 -3.47645e-11 3.65868e-10 -3.07731e-10 10.2786 0.731801 0.0259123 -3.47722e-11 3.65868e-10 -3.07725e-10 2.22167 -0.733487 -0.20892 -6.20481e-15 2.15493e-14 -8.89911e-15 -24.8139 5.14313 0.186561 7.96363 -4.89163 -10.7523 0.000100635 0.384414 -0.0540215 1.81304e-10 4.24823e-10 -1.01947e-10 3.13685e-10 7.34762e-10 -1.76061e-10 1.81298e-10 4.24823e-10 -1.01944e-10 -7.73091 5.47488 -0.417314 1.81304e-10 4.2482e-10 -1.01952e-10 -2.90554 0.965183 -0.102902 1.81297e-10 4.2482e-10 -1.0195e-10 -10.2786 0.731801 -0.0259123 1.8131e-10 4.24822e-10 -1.01963e-10 -2.22167 -0.733487 0.20892 -2.03217e-16 0.0 -3.88251e-19 -0.827378 -7.91515 0.407275 -0.00206643 7.04787 0.0584772 -0.67974 -0.133106 -1.75797 2.03217e-16 0.0 3.88251e-19 -2.26457 -7.1457 1.57417 -0.0100452 6.38185 -0.0587485 0.41467 -1.4968 -1.8729
-24.5672 83.3514 -96.3631 1.7629 1.182 5.263 -3.15079 12.0686 -1.29523 2.74047 -3.36478 -0.38509 -4.43525 8.28863 -5.77303 7.19467 -20.615 -9.13474 -0.0 0.0 0.0 -0.0 0.0 0.0 -1.64743e-14 4.47255e-14 -1.92138e-14 44.0385 9.22592 7.21924 -9.4498 -4.79348 15.4853 -0.000225014 -0.908586 -0.127692 -8.59878e-11 7.5941e-10 -6.48661e-10 -1.49792e-10 1.3139e-09 -1.1223e-09 -8.59842e-11 7.59414e-10 -6.4867e-10 7.73091 5.47488 0.417314 -8.59904e-11 7.59411e-10 -6.48665e-10 2.90554 0.965183 0.102902 -8.59845e-11 7.59411e-10 -6.48665e-10 10.2786 0.731801 0.0259123 -8.5991e-11 7.59409e-10 -6.48658e-10 2.22167 -0.733487 -0.20892 -1.66244e-14 4.47323e-14 -1.94405e-14 -51.0882 10.4091 0.425088 14.3769 -9.44637 -22.3189 0.0012875 0.842002 -0.118335 3.62231e-10 9.00346e-10 -2.13067e-10 6.26777e-10 1.55722e-09 -3.67958e-10 3.62224e-10 9.00343e-10 -2.13064e-10 -7.73091 5.47488 -0.417314 3.6223e-10 9.00341e-10 -2.1307e-10 -2.90554 0.965183 -0.102902 3.62222e-10 9.00341e-10 -2.13069e-10 -10.2786 0.731801 -0.0259123 3.62236e-10 9.00343e-10 -2.13079e-10 -2.22167 -0.733487 0.20892 -2.03217e-16 0.0 -3.88251e-19 -1.78384 -13.5889 0.886536 -0.0358348 15.6094 0.198909 -1.11144 -4.02828 -3.76699 2.03217e-16 0.0 3.88251e-19 -3.55793 -10.108 3.18513 -0.0110283 10.8221 -0.142525 0.0547068 -5.29662 -3.74385
-24.4698 83.3097 -96.9591 1.8976 1.1146 5.723 -4.14936 17.7208 -1.92418 4.0363 -4.92307 -0.547681 -5.8957 11.9438 -8.50638 8.00039 -29.5263 -14.3467 -0.0 0.0 0.0 -0.0 0.0 0.0 -2.35144e-14 6.46255e-14 -2.60509e-14 63.362 13.3904 10.7976 -12.914 -6.68717 22.6418 -0.00168189 -1.32499 -0.186241 -1.54541e-10 1.09746e-09 -9.22723e-10 -2.68755e-10 1.89874e-09 -1.59643e-09 -1.54538e-10 1.09746e-09 -9.22734e-10 7.73091 5.47488 0.417314 -1.54544e-10 1.09746e-09 -9.22729e-10 2.90554 0.965183 0.102902 -1.54539e-10 1.09746e-09 -9.22728e-10 10.2786 0.731801 0.0259123 -1.54545e-10 1.09746e-09 -9.22723e-10 2.22167 -0.733487 -0.20892 -2.36862e-14 6.46353e-14 -2.62004e-14 -74.5454 15.4287 0.578269 18.5976 -12.6059 -33.0317 0.00247695 1.15324 -0.162094 4.93716e-10 1.27434e-09 -3.0539e-10 8.5435e-10 2.20408e-09 -5.27398e-10 4.93708e-10 1.27433e-09 -3.05388e-10 -7.73091 5.47488 -0.417314 4.93715e-10 1.27433e-09 -3.05392e-10 -2.90554 0.965183 -0.102902 4.93707e-10 1.27433e-09 -3.05391e-10 -10.2786 0.731801 -0.0259123 4.9372e-10 1.27433e-09 -3.05399e-10 -2.22167 -0.733487 0.20892 -2.03217e-16 0.0 -3.88251e-19 -2.56823 -18.7781 1.33288 -0.104766 23.2575 0.337622 -1.72402 -7.44121 -5.58536 2.03217e-16 0.0 3.88251e-19 -4.57783 -12.879 4.66161 -0.000498567 14.8084 -0.220384 -0.48177 -8.64123 -5.47265
